<?xml version="1.0" encoding="UTF-8" standalone="no"?>
<!-- Created with Inkscape (http://www.inkscape.org/) -->

<svg
   version="1.1"
   id="svg1"
   width="125.41333"
   height="121.94667"
   viewBox="0 0 125.41333 121.94667"
   sodipodi:docname="logo-white.svg"
   inkscape:version="1.4.2 (ebf0e940d0, 2025-05-08)"
   xmlns:inkscape="http://www.inkscape.org/namespaces/inkscape"
   xmlns:sodipodi="http://sodipodi.sourceforge.net/DTD/sodipodi-0.dtd"
   xmlns="http://www.w3.org/2000/svg"
   xmlns:svg="http://www.w3.org/2000/svg">
  <defs
     id="defs1" />
  <sodipodi:namedview
     id="namedview1"
     pagecolor="#ffffff"
     bordercolor="#666666"
     borderopacity="1.0"
     inkscape:showpageshadow="2"
     inkscape:pageopacity="0.0"
     inkscape:pagecheckerboard="0"
     inkscape:deskcolor="#d1d1d1"
     inkscape:zoom="9.7747646"
     inkscape:cx="62.661356"
     inkscape:cy="60.973335"
     inkscape:window-width="3440"
     inkscape:window-height="1403"
     inkscape:window-x="0"
     inkscape:window-y="0"
     inkscape:window-maximized="1"
     inkscape:current-layer="group-R5">
    <inkscape:page
       x="0"
       y="0"
       inkscape:label="1"
       id="page1"
       width="125.41333"
       height="121.94667"
       margin="0"
       bleed="0" />
  </sodipodi:namedview>
  <g
     id="g1"
     inkscape:groupmode="layer"
     inkscape:label="1">
    <g
       id="group-R5">
      <path
         id="path2"
         d="m 299.504,823.855 c 21.777,-13.777 44.172,-28.191 66.277,-42.765 l -33.945,59.379 C 320.723,835.5 309.945,829.938 299.504,823.855 Z m 31.637,-603.636 26.441,45.355 c -1.492,14.563 -2.34,29.367 -2.34,44.391 0,41.055 6.758,82.996 21.254,131.941 l -10.734,18.598 c -0.164,0.035 -0.36,0.059 -0.516,0.098 -1.293,0.347 -2.547,0.828 -3.738,1.437 -11.102,5.656 -21.113,17.547 -25.719,26.203 -0.148,0.274 -0.777,1.598 -0.777,1.598 -0.231,0.488 -0.442,0.984 -0.629,1.492 -0.645,0.465 -1.516,1.043 -2.215,1.512 -1.352,0.898 -2.93,1.972 -4.57,3.215 l -31.469,-54.504 41.23,-71.742 -66.746,-114.481 c 18.809,-13.687 39.078,-25.469 60.528,-35.113 z m 478.957,425.644 c 12.355,-36.308 19.16,-75.187 19.16,-115.675 0,-180.915 -133.86,-330.5 -307.926,-355.282 1.508,-8.347 3.578,-16.664 6.098,-24.922 185.226,27.598 327.324,187.293 327.324,380.204 0,42.773 -7.09,83.863 -19.984,122.296 -8.387,-1.765 -16.618,-3.972 -24.672,-6.621 z M 374.344,184.309 c -151.633,41.98 -262.996,180.882 -262.996,345.879 0,33.316 4.636,65.531 13.129,96.144 -7.832,3.207 -15.719,7.18 -23.036,12.215 -10.0816,-34.383 -15.5894,-70.719 -15.5894,-108.359 0,-182.993 127.8864,-336.012 299.1324,-374.833 -3.91,9.372 -7.468,19.024 -10.64,28.954 z m 188.16,576.546 -61.953,107.708 c -9.973,0.882 -20.047,1.414 -30.246,1.414 -16.731,0 -33.157,-1.262 -49.239,-3.598 l 139.602,-241.82 c 0.059,0.593 0.098,1.214 0.102,1.875 0.011,2.746 -0.094,5.668 -0.317,8.933 -0.582,8.324 -0.308,15.836 0.832,22.953 2.524,15.703 8.774,30.817 18.078,43.707 12.969,18.071 31.086,31.094 51.879,37.805 l 38.235,65.574 c -18.836,13.657 -39.122,25.403 -60.59,35.008 z m -55.621,-81.64 -26.852,46.508 -33.261,0.066 c 1.457,-1.043 2.949,-2.09 4.39,-3.125 14.633,-10.367 36.09,-26.598 55.723,-43.449 z M 281.285,835.324 c 54.903,34.082 119.645,53.817 189.02,53.817 136.289,0 254.84,-75.957 315.625,-187.852 8.773,0.856 18.011,1.637 27.445,2.344 -63.406,125.16 -193.176,211.004 -343.07,211.004 -78.793,0 -152.016,-23.742 -212.992,-64.403 7.824,-4.836 15.832,-9.812 23.972,-14.91 z M 714.797,585.27 714.68,585.145 c -6.692,-8.047 -10.016,-18.512 -9.367,-29.512 0.347,-5.895 0.527,-11.93 0.527,-17.938 0,-8.582 -0.379,-17.375 -1.129,-26.129 -0.469,-5.304 -1.125,-10.562 -1.867,-15.777 l 105.48,-0.449 c 1.168,11.457 1.77,23.082 1.77,34.848 0,11.859 -0.617,23.578 -1.805,35.128 l -92.504,0.387 25.043,43.219 c -9.183,-7.164 -17.887,-15.051 -26.031,-23.652 z m 71.426,-180.161 -124.664,0.008 c -17.379,-17.176 -39.176,-29.957 -63.536,-35.722 -3.82,-0.907 -37.894,-37.399 -45.183,-51.532 l 55.984,-97.933 c 21.473,9.601 41.762,21.347 60.598,35 l -46,80.457 125.066,-0.207 c 15.168,21.601 27.871,45.039 37.735,69.929 z M 203.621,319.754 313.832,510.629 c -0.898,1.25 -1.754,2.484 -2.516,3.672 -13.168,2.828 -39.234,10.719 -44.117,29.25 -19.207,3.992 -34.144,11.199 -45.301,21.793 l -89.531,0.383 c -1.211,-11.68 -1.855,-23.536 -1.855,-35.539 0,-11.625 0.593,-23.114 1.73,-34.434 l 92.254,-0.391 -62.543,-107.918 c 11.25,-24.257 25.274,-46.941 41.668,-67.691 z m 561.109,379.98 c -3.82,0.309 -6.695,1.403 -11.011,4.18 -1.649,1.063 -3.356,2.438 -5.071,4.082 -4.453,4.274 -11.812,10.727 -21.378,17.055 l 9.296,16.101 C 746.93,728.09 756.352,714.25 764.73,699.734"
         style="fill:#ffffff;fill-opacity:1;fill-rule:nonzero;stroke:none"
         transform="matrix(0.13333333,0,0,-0.13333333,0,121.94667)" />
      <path
         id="path3"
         d="m 687.195,674.02 c -1.507,-6.813 -7.004,-12.309 -13.816,-13.817 -13.52,-2.992 -25.285,8.774 -22.293,22.293 1.504,6.813 7.004,12.309 13.816,13.817 13.52,2.992 25.286,-8.774 22.293,-22.293 z m 252.328,16.503 c -25.171,-0.679 -107.929,-3.289 -163.476,-9.531 -14.414,-1.613 -22.422,0.188 -32.699,6.809 -2.868,1.847 -5.512,4.012 -7.973,6.375 -8.836,8.488 -37.883,33.445 -72.273,31.64 -4.364,-0.226 -8.633,-0.339 -12.793,-0.953 -0.172,0 -0.344,-0.035 -0.512,-0.101 -0.207,-0.035 -0.375,-0.071 -0.547,-0.106 -0.137,-0.035 -0.273,-0.035 -0.41,-0.066 -22.176,-3.789 -41.352,-16.242 -53.938,-33.777 -7.449,-10.313 -12.589,-22.411 -14.695,-35.528 -0.988,-6.137 -1.074,-12.39 -0.641,-18.59 0.243,-3.468 0.379,-6.906 0.368,-10.34 -0.024,-4.98 -0.926,-9.988 -3.239,-14.394 -4.351,-8.297 -12.375,-14.313 -21.894,-16.047 l 0.105,-0.519 c -3.961,-3.106 -7.418,4.984 -8.875,7.906 -3.211,7.222 -9.25,15.644 -13.429,22.851 -16.004,22.836 -63.77,60.504 -92.606,80.938 -119.09,85.351 -293.539,188.914 -316.141,199.07 -7.261,2.399 -20.359,11.512 -27.1284,7.445 -1.1797,-1.464 -1.3828,-3.609 -1.0899,-5.648 1.4219,-10.973 8.1953,-20.625 13.8083,-29.969 0.309,-1.316 -1.328,-1.418 -3.547,-1.562 -1.933,-0.082 -3.496,-0.789 -4.07,-2.391 -0.348,-20.09 18.527,-36.609 32.918,-48.719 5.676,-4.445 -6.316,0.434 -8.406,0.286 -5.805,1.121 -8.492,-2.047 -6.746,-7.43 6.234,-20.574 25.101,-35.824 42.312,-47.152 1.84,-1.348 1.184,-1.762 -1.058,-2.133 -1.985,-0.301 -3.989,-1.11 -4.313,-3.071 -0.43,-2.175 0.336,-4.875 1.278,-7.078 11.656,-26.289 42.914,-42.066 62.992,-51.379 1.824,-0.925 0.324,-0.875 -3.524,-0.371 -8.023,1.285 -17.379,0.91 -11.718,-9.093 15.558,-29.055 58.136,-42.629 76.046,-48.274 3.93,-0.98 -7.605,0.27 -10.609,-1.16 -4.621,-1.148 -3.82,-5.859 -1.383,-9.266 11.27,-16.656 31.817,-26.148 50.356,-32.097 5.027,-1.524 3.285,-2.004 -3.035,-3.356 -21.93,-5.726 17.878,-28.336 25.335,-31.176 3.903,-10.359 8.321,-22.515 16.957,-30.203 3.571,-3.66 2.895,-8.547 4.614,-13.148 3.094,-8.942 9.136,-16.914 15.933,-23.5 5.254,-7.598 3.5,-18.02 8.692,-26.235 3.152,-6.632 7.801,-12.441 13.07,-17.539 1.402,-1.519 0.168,-4.171 -0.226,-5.386 -2.489,-7.746 -4.415,-13.227 -6.336,-19.707 -11.5,-38.75 -20.575,-81.301 -20.575,-126.883 0,-103.274 37.973,-193.719 94.813,-243.7658 -1.774,3.6172 -3.445,7.3008 -5.082,11.0196 -52.168,120.0902 -9.621,254.2732 95.047,299.7542 9.246,3.992 18.664,7.195 28.179,9.586 0.379,0.101 0.786,0.203 1.161,0.304 0.07,0 0.136,0.035 0.242,0.071 1.535,0.375 3.101,0.714 4.636,1.054 37.461,9.317 67.895,36.438 81.782,71.852 3.07,9.621 5.593,19.926 7.504,30.773 1.261,7.301 2.254,14.84 2.933,22.586 0.684,7.985 1.059,16.172 1.059,24.496 0,5.676 -0.164,11.285 -0.492,16.809 -0.93,15.766 3.961,31.375 14.195,43.406 l 0.504,0.531 c 36.027,38.063 83.09,63.938 134.57,73.766 39.774,7.594 75.988,10.219 85.242,10.797 1.551,0.098 3.063,0.379 4.543,0.848 l 14.614,4.593 c 1.175,0.371 0.906,2.11 -0.329,2.078 z M 608.27,7.25391 C 611.703,4.76563 615.152,2.32422 618.656,0 561.582,11.1602 506.059,32.7109 477.059,96.8984 437.477,202.289 474.555,316.219 563.027,357.414 c -0.656,-0.664 -1.273,-1.359 -1.945,-2.012 -1.203,-1.117 -2.437,-2.25 -3.621,-3.394 -0.074,-0.086 -0.121,-0.153 -0.184,-0.188 -0.281,-0.293 -0.597,-0.597 -0.882,-0.886 -7.321,-7.168 -14.118,-15.016 -20.344,-23.485 C 465.676,231.336 498.008,88.0039 608.27,7.25391 Z M 346.805,531.578 c -5.125,7.84 -11.356,15.137 -14.778,24.5 -3.679,7.5 -13.257,9.75 -18.949,15.063 -6.894,5.523 -13.867,11.797 -17.144,20.285 -1.2,3.152 -0.946,6.265 -3.407,8.672 -13.867,8.836 -27.031,16.484 -35.898,30.461 -3.02,3.839 -3.602,9.332 -6.774,12.894 -21.386,11.293 -46.968,23.785 -58.996,48.813 -3.574,5.746 -1.464,13.949 -7.785,17.699 -17.961,11.84 -34.801,27.074 -41.777,48.152 -1.43,12.203 -7.43,15.578 -18.594,18.41 -36.9647,11.305 -86.3046,26.004 -97.7811,27.289 -8.4961,1.414 -20.89846,4.243 -24.050806,0.536 -1.171875,-1.438 -1.007813,-3.489 -0.402344,-5.348 C 4.28516,788.738 12.5,780.512 20.6836,773.328 c 1.8398,-1.973 0.9297,-2.613 -2.2031,-3.531 -5.1641,-1.317 -3.3907,-6.731 -1.3164,-10.113 9.4453,-15.84 26.8828,-25.907 43.3125,-33.438 1.1093,-0.668 0.6718,-0.945 -1.2305,-0.953 -3.8906,-0.055 -11.4766,0.941 -14.0859,-2.332 -1.2188,-1.816 -0.2383,-4.621 0.8593,-6.617 11.0664,-18.535 33.1836,-28.817 52.7227,-35.66 2.1248,-0.868 1.5858,-1.422 -0.5078,-2.325 -5.4805,-1.761 -3.2305,-7.254 -0.4805,-10.617 17.7621,-22.789 52.0861,-30.519 73.9261,-34.726 2,-0.461 0.523,-0.774 -3.356,-1.219 -7.347,-0.703 -16.789,-2.797 -9.941,-10.856 22.355,-25.816 68.137,-28.043 87.633,-29.496 -3.551,-0.953 -20.008,-3.382 -10.938,-12.191 15.133,-14.391 38.703,-18.598 58.617,-19.848 2.825,-0.172 3.375,-0.879 -1.007,-2.851 -23.465,-10.395 17.871,-23.895 27.433,-24.485 2.301,-0.218 3.539,-1.004 4.731,-3.043 2.574,-4.73 6.156,-9.964 10.261,-13.968 5.684,-6.743 15.043,-8.356 17.235,-17.055 l 0.355,-0.762 c 3.301,-6.203 10.758,-14.691 17.508,-18.129 0.73,-0.199 1.113,0.094 1.148,0.864 -1.222,5.039 -2.043,12.8 -5.543,17.289 -9.117,9.511 -15.043,22 -19.011,34.312"
         style="fill:#ffffff;fill-opacity:1;fill-rule:nonzero;stroke:none"
         transform="matrix(0.13333333,0,0,-0.13333333,0,121.94667)" />
    </g>
  </g>
</svg>
